<svg width="71" height="44" viewBox="0 0 71 44" fill="none" xmlns="http://www.w3.org/2000/svg">
<path d="M15.51 26.7C15.51 28.88 14.92 30.55 13.74 31.71C12.56 32.85 10.94 33.42 8.88 33.42C7.82 33.42 6.86 33.28 6 33C5.14 32.7 4.4 32.27 3.78 31.71C3.16 31.13 2.68 30.43 2.34 29.61C2 28.77 1.83 27.8 1.83 26.7V24.72H5.79V26.7C5.79 27.64 6.05 28.38 6.57 28.92C7.09 29.44 7.82 29.7 8.76 29.7C9.64 29.7 10.32 29.44 10.8 28.92C11.3 28.4 11.55 27.66 11.55 26.7V15.72H9.39V12H17.31V15.72H15.51V26.7ZM31.1491 18.42C31.1491 17.58 30.8191 16.85 30.1591 16.23C29.5191 15.61 28.6091 15.3 27.4291 15.3C26.4291 15.3 25.6391 15.51 25.0591 15.93C24.4791 16.33 24.1891 16.88 24.1891 17.58C24.1891 17.94 24.2591 18.27 24.3991 18.57C24.5391 18.85 24.7791 19.11 25.1191 19.35C25.4791 19.57 25.9391 19.77 26.4991 19.95C27.0791 20.13 27.8091 20.3 28.6891 20.46C30.8891 20.86 32.5691 21.53 33.7291 22.47C34.8891 23.41 35.4691 24.8 35.4691 26.64V27C35.4691 27.98 35.2891 28.87 34.9291 29.67C34.5891 30.45 34.0891 31.12 33.4291 31.68C32.7691 32.24 31.9691 32.67 31.0291 32.97C30.0891 33.27 29.0291 33.42 27.8491 33.42C26.4691 33.42 25.2491 33.23 24.1891 32.85C23.1491 32.45 22.2791 31.91 21.5791 31.23C20.8791 30.53 20.3491 29.72 19.9891 28.8C19.6291 27.86 19.4491 26.84 19.4491 25.74V24.84H23.4091V25.56C23.4091 26.82 23.7691 27.83 24.4891 28.59C25.2291 29.33 26.3691 29.7 27.9091 29.7C29.1091 29.7 29.9991 29.44 30.5791 28.92C31.1591 28.4 31.4491 27.78 31.4491 27.06C31.4491 26.72 31.3891 26.4 31.2691 26.1C31.1491 25.78 30.9391 25.5 30.6391 25.26C30.3391 25 29.9291 24.77 29.4091 24.57C28.8891 24.37 28.2291 24.2 27.4291 24.06C26.3691 23.88 25.3991 23.65 24.5191 23.37C23.6391 23.07 22.8691 22.68 22.2091 22.2C21.5691 21.72 21.0691 21.12 20.7091 20.4C20.3491 19.68 20.1691 18.8 20.1691 17.76V17.58C20.1691 16.72 20.3391 15.93 20.6791 15.21C21.0391 14.47 21.5291 13.83 22.1491 13.29C22.7891 12.75 23.5491 12.33 24.4291 12.03C25.3291 11.73 26.3291 11.58 27.4291 11.58C28.6691 11.58 29.7691 11.76 30.7291 12.12C31.6891 12.46 32.4891 12.93 33.1291 13.53C33.7891 14.13 34.2791 14.82 34.5991 15.6C34.9391 16.38 35.1091 17.2 35.1091 18.06V19.14H31.1491V18.42Z" fill="white"/>
<rect x="47" y="18" width="24" height="8" fill="white"/>
</svg>
